<svg width="352" height="353" viewBox="0 0 352 353" fill="#1e293b" xmlns="http://www.w3.org/2000/svg">
<path d="M171.692 0.0660186C152.557 1.20274 135.838 4.37608 119.261 10.0123C104.247 15.1275 93.9214 20.0533 81.0859 28.2945C42.627 52.8287 15.0615 91.8087 4.2627 136.993C1.37354 148.976 0 161.338 0 175.073C0 186.819 0.42627 191.887 2.36816 203.207C4.92578 218.127 8.99902 231.72 14.4458 243.466C17.0034 249.055 18.2349 250.334 20.8398 250.334C23.4448 250.334 25.292 249.292 26.2393 247.302C27.3286 244.982 27.2339 244.366 24.8184 239.393C19.9873 229.541 15.6772 216.469 14.0195 206.712C13.7354 204.96 13.7354 204.96 15.9614 204.154C18.9927 203.065 25.6235 202.733 29.0337 203.397C33.249 204.296 37.9854 206.949 41.9165 210.596C45.2793 213.674 45.5635 213.864 47.6948 213.864C50.2524 213.864 51.5786 213.011 52.7627 210.691C54.1362 207.943 53.3784 204.486 50.9629 202.639C49.4473 201.455 49.3999 200.318 50.7261 196.055C53.2363 187.814 60.1987 181.657 69.2925 179.62C73.3657 178.72 74.6445 177.82 75.2603 175.689C75.876 173.51 75.0708 171.379 73.1289 169.863C71.8975 168.869 71.3765 168.774 68.4399 169.011C66.5928 169.153 63.6562 169.816 61.8564 170.479C60.104 171.142 58.541 171.711 58.4937 171.711C58.2568 171.711 56.4097 166.785 55.936 164.843C55.1782 162.096 55.3203 156.602 56.1255 153.902C57.1675 150.444 57.3569 150.302 59.1094 150.918C61.0986 151.581 62.8037 151.155 64.4614 149.45C65.6455 148.313 65.835 147.697 65.835 145.613C65.835 143.34 65.6929 143.008 63.9404 141.351C61.667 139.172 60.3882 136.141 59.4409 130.647C56.8833 116.059 62.188 100.381 74.0762 87.4513C78.1968 82.9518 78.8599 81.1993 77.3916 78.4049C76.8706 77.4103 75.7339 76.3683 74.6919 75.8473C71.8975 74.5211 69.8608 75.3263 66.6401 79.0206C60.3882 86.1725 55.0361 94.5084 52.0996 101.66L50.3472 105.876L45.4688 109.286C37.417 114.827 32.3965 120.653 28.0864 129.32C23.208 139.125 21.1714 151.581 22.9238 160.864C23.3501 163.09 23.6816 164.985 23.6816 165.127C23.6816 165.222 21.6924 165.364 19.2769 165.364C16.6245 165.411 14.1143 165.743 12.9302 166.169L10.8936 166.927V165.174C10.8936 164.227 11.2251 160.533 11.6514 157.028C13.9722 136.946 20.2715 116.817 29.7915 99.2447C47.0317 67.3692 72.4658 43.0719 104.768 27.5367C113.956 23.1319 118.929 21.1427 128.497 18.3009C140.385 14.7013 150.568 12.6647 163.072 11.3385C168.661 10.7701 172.971 10.628 182.349 10.8648C188.979 11.0069 195.374 11.2911 196.558 11.4806L198.689 11.8595L194.805 12.9015C178.986 17.1642 162.456 26.6842 149.715 38.8565C137.827 50.1764 126.981 66.8482 121.061 82.7623C118.834 88.8248 116.277 99.0553 115.282 106.112C114.667 110.138 114.43 114.827 114.477 122.216C114.477 137.609 116.277 148.171 121.061 160.959C122.245 164.132 123.239 166.737 123.287 166.832C123.381 166.879 124.423 166.311 125.655 165.506C128.781 163.564 139.864 158.922 146.21 156.838C152.131 154.944 162.267 152.765 165.25 152.765C166.292 152.765 167.192 152.671 167.192 152.481C167.192 152.339 166.292 150.965 165.25 149.355C161.319 143.577 157.767 134.578 155.73 125.295C154.783 120.937 154.688 118.995 154.688 109.428C154.688 99.9078 154.783 97.9186 155.73 93.7032C160.088 73.7633 172.118 56.0021 188.932 44.919C198.357 38.6197 206.22 35.2096 217.208 32.652C222.465 31.3731 223.555 31.2784 232.791 31.2784C243.353 31.2784 246.668 31.7047 255.004 34.1202C273.618 39.5196 291.189 53.8707 300.899 71.5372C310.845 89.7247 313.782 108.717 309.708 128.847C307.814 138.177 303.362 148.881 297.962 157.075C291.095 167.448 279.728 177.252 267.034 183.599C248.752 192.787 225.733 194.161 206.03 187.246C199.068 184.783 190.969 180.378 186.611 176.636C183.675 174.173 183.296 174.363 183.296 178.341C183.249 182.462 182.159 189.235 178.749 206.286L175.576 222.152L175.623 236.361L175.718 250.57L177.47 252.133C179.554 253.981 186.09 258.101 190.211 260.185C202.194 266.2 218.155 270.7 227.628 270.7C229.57 270.7 231.133 270.889 231.133 271.079C231.133 271.316 229.996 272.121 228.67 272.879L226.16 274.252L202.715 274.536C181.97 274.773 178.986 274.868 176.665 275.626C172.45 276.999 169.466 278.988 165.866 282.777C160.467 288.461 160.704 288.414 143.511 288.698C133.422 288.84 128.781 289.124 128.07 289.503C126.981 290.119 125.513 292.818 125.513 294.097C125.513 295.755 126.934 298.123 128.354 298.881C129.633 299.544 131.812 299.639 145.784 299.497L161.746 299.355L164.587 297.981C166.624 296.986 168.613 295.376 171.692 292.203C174.06 289.835 176.618 287.514 177.375 287.135C180.407 285.619 184.338 285.382 205.841 285.382C225.544 285.382 227.486 285.288 230.138 284.483C233.785 283.346 237.243 281.12 239.658 278.42L241.505 276.289L243.021 277.52C244.773 279.036 247.284 279.13 249.462 277.804C251.452 276.62 251.878 275.768 252.73 270.889C253.915 264.069 257.041 259.712 262.771 257.059C265.14 255.922 266.04 255.78 270.444 255.78C274.707 255.78 275.702 255.922 277.407 256.822C278.496 257.438 279.491 258.291 279.633 258.764C280.154 260.28 282.143 261.748 284.038 261.985C286.358 262.269 288.537 260.943 289.863 258.433C291.568 255.07 296.542 252.228 302.509 251.233C308.24 250.286 315.155 251.849 319.702 255.07L321.123 256.065L319.513 258.527C318.66 259.901 317.523 261.701 317.05 262.553L316.15 264.116L310.94 264.258C305.067 264.448 301.988 265.348 297.82 268.142L295.405 269.8L291.332 268.758C285.743 267.337 279.822 267.669 274.044 269.658C268.313 271.647 265.14 273.636 260.451 278.278C257.325 281.404 255.951 283.204 254.341 286.33C251.546 291.871 249.794 294.145 247.284 295.755C242.784 298.597 242.405 298.644 214.84 298.644C199.778 298.644 188.458 298.834 186.611 299.165C182.159 299.828 178.323 301.817 175.292 304.943C173.871 306.412 171.645 308.164 170.318 308.922L167.903 310.248L148.01 310.485C131.907 310.674 127.928 310.864 127.123 311.385C124.66 312.995 123.808 316.926 125.371 319.342C126.981 321.757 127.786 321.852 147.395 321.852C171.313 321.852 172.734 321.521 180.217 315.032C182.491 313.043 185.096 311.053 186.043 310.58C187.606 309.869 190.874 309.775 215.74 309.538C246.431 309.206 245.105 309.348 251.12 306.128C255.478 303.807 258.888 300.065 261.919 294.381C263.482 291.398 265.613 288.319 267.224 286.519C273.807 279.509 284.701 276.857 292.658 280.457C296.494 282.162 298.483 281.878 300.804 279.273C302.367 277.567 307.151 275.01 307.719 275.626C308.098 276.004 303.741 281.357 298.152 287.466C271.865 315.979 239.895 333.409 201.294 340.182C192.295 341.745 190.732 341.887 179.317 342.124C165.582 342.36 159.614 341.934 146.874 339.803C133.517 337.577 120.918 333.788 109.978 328.72C106.899 327.299 104.104 326.115 103.773 326.115C101.357 326.115 98.042 329.43 98.042 331.846C98.042 333.646 99.6523 335.824 101.926 337.103C107.325 340.087 121.297 345.297 129.681 347.381C146.637 351.644 156.962 352.875 176.191 352.828C192.721 352.828 196.179 352.449 211.998 349.086C240.227 342.976 267.176 329.809 289.153 311.337C298.483 303.523 312.219 288.556 320.176 277.567C335.569 256.301 346.889 226.415 350.772 196.718C351.814 188.809 352.193 169.769 351.483 161.717C348.594 129.32 336.374 96.7818 317.713 71.9161L314.445 67.5587C304.007 53.2886 296.447 43.2886 278.591 30.568L273.949 27.6314C248.184 11.4332 213.087 0.823831 182.822 0.113382C178.275 -0.028708 173.255 -0.028708 171.692 0.0660186ZM136.169 117.29C136.643 119.942 138.064 121.458 140.669 121.884C143.416 122.358 143.511 123.4 140.858 124.11C137.78 124.868 136.501 126.337 135.933 129.557C135.743 130.789 135.459 131.215 134.749 131.215C133.991 131.215 133.754 130.789 133.564 129.273C133.138 126.337 132.001 124.916 129.539 124.3C126.744 123.589 126.555 122.216 129.207 121.79C131.291 121.458 132.901 119.99 133.328 117.953C133.849 115.538 133.991 115.348 134.938 115.348C135.648 115.348 135.933 115.775 136.169 117.29ZM48.9263 136.425C49.3052 137.704 49.8262 139.361 50.1104 140.025C50.5366 141.067 50.3945 141.588 49.2104 143.34C43.29 152.244 42.5796 166.216 47.6001 175.31L49.1631 178.247L46.7949 180.994C44.7109 183.504 40.2588 191.556 40.2588 192.882C40.2588 193.213 40.0693 193.971 39.7852 194.634L39.3589 195.866L35.9961 194.255C30.123 191.414 22.1187 190.845 15.251 192.787C13.6406 193.261 12.1724 193.498 12.0303 193.403C11.604 192.929 10.8462 184.593 10.9883 181.799L11.1304 179.052L13.9722 177.868C16.293 176.921 17.6665 176.731 21.3135 176.684C25.4341 176.684 26.0972 176.826 29.0811 178.199C33.3438 180.236 35.1436 180.236 37.1802 178.199C39.6904 175.689 39.7378 173.984 37.417 169.342C34.6699 163.896 33.6279 159.443 33.6279 153.239C33.6279 141.351 37.3696 131.546 44.7109 124.158L47.6001 121.269L47.9316 127.663C48.0737 131.168 48.5474 135.099 48.9263 136.425ZM320.318 167.495C321.502 174.173 323.444 177.015 327.138 177.631C329.838 178.105 330.122 178.247 330.122 179.194C330.122 179.904 329.696 180.189 328.228 180.378C323.775 180.946 321.218 184.167 320.697 189.898C320.413 193.071 320.365 193.261 319.229 193.261C318.092 193.261 318.044 193.071 317.76 190.182C317.476 187.009 316.245 183.93 314.634 182.509C313.45 181.42 310.561 180.236 309.045 180.236C307.293 180.236 307.388 178.483 309.188 178.057C314.824 176.826 317.145 174.316 317.666 168.916C318.092 164.559 319.655 163.754 320.318 167.495ZM292.8 210.027C292.989 211.164 293.416 212.396 293.7 212.775C294.505 213.722 296.731 214.811 297.915 214.811C298.673 214.811 298.91 215.048 298.768 215.853C298.673 216.753 298.294 216.99 296.873 217.085C294.6 217.274 292.705 219.405 292.705 221.726C292.705 223.194 292.563 223.384 291.663 223.242C291 223.147 290.526 222.721 290.432 222.152C289.911 218.648 288.916 217.463 286.027 216.99C283.375 216.564 283.706 215.332 286.69 214.48C288.584 213.911 289.105 213.532 289.674 212.206C290.053 211.306 290.337 210.075 290.337 209.412C290.337 208.275 291.047 207.659 291.995 207.896C292.231 207.943 292.61 208.938 292.8 210.027ZM221.66 212.443C221.66 212.917 221.897 214.432 222.181 215.758C222.892 219.121 224.786 221.11 227.912 222.01C229.807 222.531 230.422 222.91 230.422 223.621C230.422 224.331 229.949 224.568 228.102 224.852C224.407 225.373 222.844 227.22 222.086 232.004C221.802 233.614 221.376 235.083 221.044 235.272C220.097 235.84 219.292 234.656 219.292 232.714C219.292 228.641 216.498 225.184 212.756 224.757C210.956 224.568 210.53 224.331 210.53 223.573C210.53 222.863 210.956 222.579 212.188 222.342C216.024 221.726 218.439 219.311 219.055 215.522C219.624 211.78 219.766 211.496 220.713 211.496C221.329 211.496 221.66 211.827 221.66 212.443ZM279.68 235.888C284.274 237.072 292.705 241.477 292.705 242.661C292.705 242.85 291.332 243.703 289.674 244.555C288.016 245.408 286.216 246.592 285.648 247.208L284.606 248.344L282.617 247.255C277.833 244.603 269.687 243.703 263.813 245.076C260.261 245.929 254.625 248.913 251.641 251.518C248.752 254.075 244.916 259.617 243.684 263.074L242.784 265.49H237.195L237.527 263.737C238.19 260.138 240.179 254.738 241.884 251.754C244.11 247.918 250.883 241.05 254.341 239.108C257.325 237.403 261.777 235.84 265.329 235.177C268.597 234.609 276.128 234.988 279.68 235.888Z"/>
<path d="M107.657 54.3443C102.731 59.0807 91.3164 71.774 88.2852 75.8473C80.707 86.1251 75.0234 98.5343 72.4658 110.612C71.1396 116.674 70.6187 129.747 71.4712 135.241C72.0869 139.409 74.9287 148.597 76.2549 150.776C78.8125 154.991 84.4014 155.228 86.4854 151.297C87.48 149.355 87.1958 147.745 85.1118 143.056C82.6016 137.514 81.749 131.594 82.0806 122.926C82.6016 110.044 85.9644 99.7183 93.6372 87.2618C97.2368 81.5308 101.973 75.8946 111.114 66.5641C115.614 61.9698 118.929 58.1808 119.119 57.4703C119.592 55.6705 118.55 53.0182 116.987 51.8814C116.087 51.2657 114.903 50.9342 113.435 50.9342C111.304 50.9342 111.02 51.0763 107.657 54.3443Z"/>
<path d="M242.642 51.8814C228.623 56.8546 224.739 74.7105 235.348 85.462C243.21 93.4664 256.188 93.5611 264.05 85.7462C269.45 80.3468 271.534 73.2423 269.734 66.422C267.129 56.381 259.835 50.8868 249.226 50.9815C246.479 50.9815 244.252 51.3131 242.642 51.8814Z"/>
<path d="M211.051 54.4864C209.44 56.0021 209.44 57.9913 211.051 59.649C212.661 61.2594 214.698 61.2594 216.213 59.6964C217.492 58.465 217.682 57.1388 216.829 55.5284C215.55 53.0655 213.087 52.5919 211.051 54.4864Z"/>
<path d="M186.896 66.9903C181.543 70.5425 183.485 78.6417 189.785 79.21C192.626 79.4468 194.947 78.3101 196.179 75.9893C198.642 71.3951 195.563 66.0904 190.4 66.0904C189.122 66.0904 187.748 66.4693 186.896 66.9903Z"/>
<path d="M206.741 80.5362C204.183 83.0465 206.03 87.5934 209.535 87.5934C213.324 87.5934 215.266 82.857 212.472 80.4889C210.719 78.9733 208.256 78.9733 206.741 80.5362Z"/>
<path d="M293.131 98.0606C290.574 99.4342 290.29 103.129 292.563 104.928C294.41 106.397 296.636 106.16 298.104 104.407C298.768 103.602 299.336 102.56 299.336 102.039C299.336 100.334 297.962 98.3922 296.447 97.8712C294.6 97.2555 294.647 97.2555 293.131 98.0606Z"/>
<path d="M224.976 101.234C220.097 103.744 219.624 110.28 224.123 113.596C224.881 114.164 226.396 114.638 227.912 114.78C230.849 115.017 233.075 113.785 234.638 111.133C238.237 104.976 231.37 97.9659 224.976 101.234Z"/>
<path d="M272.718 102.323C268.502 104.644 268.55 111.464 272.765 113.691C274.47 114.543 277.359 114.59 278.828 113.785C283.043 111.417 283.28 104.976 279.254 102.513C277.501 101.471 274.518 101.376 272.718 102.323Z"/>
<path d="M189.216 106.491C184.101 108.954 181.212 114.401 182.301 119.469C183.959 126.763 190.779 130.694 198.073 128.515C200.489 127.805 203.804 124.868 205.036 122.311C206.362 119.611 206.362 115.396 205.036 112.506C203.046 108.149 199.636 105.876 194.663 105.544C192.153 105.402 191.158 105.544 189.216 106.491Z"/>
<path d="M243.447 125.2C241.553 127.142 241.505 129.131 243.4 131.025C244.158 131.783 245.152 132.399 245.579 132.399C246.999 132.399 248.989 131.025 249.557 129.652C250.646 127.094 249.273 124.631 246.384 124.063C245.152 123.826 244.679 124.016 243.447 125.2Z"/>
<path d="M214.556 130.031C213.324 131.262 213.277 134.341 214.461 135.336C215.787 136.567 217.255 136.756 218.724 135.999C220.287 135.193 220.713 134.388 220.713 132.399C220.713 129.51 216.64 127.947 214.556 130.031Z"/>
<path d="M267.697 135.051C263.671 137.041 261.398 140.83 261.398 145.661C261.351 152.197 266.703 157.454 273.428 157.502C276.744 157.502 278.733 156.744 281.338 154.376C285.032 151.06 286.264 146.845 284.985 142.298C284.038 139.172 281.575 136.141 278.828 134.815C275.749 133.346 270.918 133.441 267.697 135.051Z"/>
<path d="M230.375 145.85C228.433 147.745 228.291 148.076 228.291 150.444C228.291 156.175 233.454 159.586 238.521 157.217C242.121 155.512 243.4 151.297 241.458 147.603C240.132 144.998 237.906 143.766 234.732 143.766C232.648 143.766 232.222 143.956 230.375 145.85Z"/>
<path d="M161.935 157.738C150.71 159.822 135.98 165.695 125.655 172.326L122.245 174.505L118.787 172.705C110.688 168.537 100.126 169.011 92.0269 173.937C87.5274 176.684 85.3486 178.72 79.2388 185.777C76.1602 189.377 71.9448 194.113 69.8609 196.339C63.2774 203.302 62.709 204.817 65.4087 207.943C67.1138 209.885 68.2505 210.027 73.1763 208.891C74.9287 208.464 77.5337 208.18 78.9546 208.275L81.5596 208.417L78.9072 211.069C75.9234 214.053 75.4497 215.9 77.2022 217.653C79.0967 219.547 80.7544 218.979 84.9697 214.811C87.1011 212.727 89.1377 211.022 89.4693 211.022C89.8008 211.022 90.4639 211.259 90.9375 211.496C91.7901 211.969 91.7901 212.159 90.1797 216.564L88.522 221.158L80.2334 229.588C75.6865 234.183 71.9922 238.256 71.9922 238.635C71.9922 239.487 74.2656 242.566 76.397 244.603L78.0547 246.166L67.1611 257.154C54.0889 270.226 47.7896 277.094 40.0693 286.519C25.1499 304.754 16.2456 318.868 11.1304 332.272C6.91505 343.355 7.1045 348.186 11.7461 348.091C14.0669 347.997 16.1035 347.002 23.1607 342.36C42.2954 329.809 66.7349 307.264 98.0894 273.115C101.878 269.042 102.257 268.758 103.252 269.279C103.82 269.563 104.768 269.705 105.336 269.563C105.904 269.421 109.835 265.585 114.146 261.038L121.96 252.702H124.376C126.507 252.702 126.934 252.891 127.644 253.933L128.449 255.165L122.718 260.943C116.514 267.195 116.135 268.047 117.982 270.416C118.692 271.316 119.355 271.647 120.634 271.647C122.15 271.647 122.86 271.126 127.644 266.437C130.533 263.548 133.138 261.227 133.47 261.227C134.464 261.227 134.133 266.342 132.807 271.505C131.386 277.141 131.67 278.42 134.606 279.841C136.122 280.599 136.501 280.599 137.922 280.03C138.774 279.651 141.19 277.804 143.274 275.91C145.358 274.015 149.857 270.131 153.22 267.242C161.746 260.09 164.209 257.628 166.293 254.454C168.992 250.286 170.082 246.639 170.366 240.861C170.745 233.567 169.229 228.452 165.108 223.052L163.451 220.921L165.298 217.842C171.455 207.801 176.381 195.155 178.418 184.025C179.507 178.105 179.649 159.065 178.607 157.833C178.086 157.17 176.997 157.028 171.739 157.075C168.329 157.075 163.924 157.407 161.935 157.738ZM172.166 170.858C172.166 174.931 171.976 178.436 171.787 178.626C171.313 179.099 166.15 176.305 162.882 173.795C160.23 171.758 155.825 167.211 155.825 166.501C155.825 165.79 168.14 163.185 170.745 163.327L172.166 163.422V170.858ZM153.741 174.6C157.862 178.957 162.551 182.651 169.75 187.104C170.413 187.53 170.318 188.146 168.85 193.119C166.245 201.881 162.74 209.317 156.63 219.074C150.852 228.262 145.784 233.946 139.295 238.209C136.264 240.245 127.549 244.65 125.229 245.313C124.471 245.55 121.724 243.134 110.546 232.383C100.931 223.1 96.9053 218.884 97 218.269C97.3316 216.469 103.205 204.865 105.62 201.36C114.24 188.525 128.876 176.826 143.748 170.811L148.484 168.869L149.857 170.432C150.568 171.237 152.32 173.131 153.741 174.6ZM112.535 177.631C113.814 178.01 115.282 178.626 115.803 179.004C116.703 179.668 116.703 179.715 115.33 180.757C109.883 184.925 101.547 194.398 97.7578 200.744C96.7632 202.355 95.9107 203.775 95.8633 203.87C95.7686 203.965 94.6792 203.586 93.4004 203.065C92.1216 202.497 90.085 201.834 88.9009 201.549C86.2486 200.981 78.6231 200.839 76.0181 201.313L74.1236 201.691L77.0127 198.85C78.5757 197.287 81.8911 193.592 84.4014 190.608C86.8643 187.625 89.8955 184.309 91.0796 183.22C96.6685 178.057 105.904 175.642 112.535 177.631ZM93.9688 228.168C94.3477 229.21 94.2529 229.683 93.5425 230.441C91.9795 232.193 89.9902 231.341 89.9902 228.925C89.9902 226.51 93.1636 225.894 93.9688 228.168ZM160.656 228.925C163.64 233.993 164.54 239.961 162.977 244.982C161.367 250.381 158.904 253.507 151.326 259.806C147.631 262.885 143.795 266.2 142.8 267.1C140.764 269.042 140.432 269.042 141.095 267.195C142.706 262.98 141.806 254.596 139.248 250.049L137.827 247.492L139.153 246.734C147.11 241.903 152.841 236.788 157.246 230.536C158.383 228.925 159.472 227.599 159.614 227.599C159.756 227.599 160.23 228.168 160.656 228.925ZM99.084 243.466C105.667 250.144 111.067 255.78 111.067 255.97C111.067 256.207 109.978 257.533 108.604 259.001L106.141 261.606L93.8267 249.386C87.0064 242.708 81.4649 237.072 81.4649 236.882C81.4649 236.267 85.917 231.436 86.5327 231.436C86.8169 231.388 92.5005 236.835 99.084 243.466ZM92.4058 261.417L93.353 262.648L83.5488 273.163C69.8609 287.893 52.4312 305.086 42.2954 313.942C34.0068 321.189 24.6763 328.72 24.3921 328.388C24.1079 328.104 29.981 318.158 34.291 311.716C43.8584 297.413 53.5679 285.903 72.0869 267.1L85.3013 253.696L88.3799 256.964C90.085 258.717 91.8848 260.754 92.4058 261.417Z"/>
<path d="M141.616 181.704C134.749 184.83 132.522 193.119 136.975 199.229C138.443 201.313 143.179 203.918 145.453 203.918C151.705 203.918 157.436 198.139 157.436 191.84C157.388 183.646 149.052 178.341 141.616 181.704ZM148.247 188.051C149.952 188.951 150.615 190.087 150.615 192.314C150.615 194.776 148.91 196.339 146.21 196.339C142.421 196.339 140.243 193.308 141.806 190.23C142.611 188.714 144.553 187.388 146.021 187.34C146.495 187.34 147.489 187.672 148.247 188.051Z"/>
<path d="M65.1245 221.584C64.5562 221.916 55.4624 230.915 44.853 241.619C30.8809 255.733 25.5762 261.417 25.5288 262.222C25.3867 265.442 26.2866 267.148 28.7969 268.19C32.1597 269.563 32.207 269.516 53.6626 248.108C71.6133 230.062 73.4131 228.12 73.4131 226.747C73.4131 225.894 73.0816 224.568 72.7026 223.858C71.4712 221.489 67.3506 220.258 65.1245 221.584Z"/>
<path d="M17.7612 280.125C17.0034 280.599 13.3091 284.056 9.61475 287.798C2.27344 295.281 1.51563 296.608 3.03125 299.497C4.59424 302.481 7.19922 303.57 10.2778 302.386C11.6987 301.865 22.5449 291.445 24.6763 288.508C25.4814 287.419 26.0498 286.046 26.0498 285.193C26.0498 282.304 23.0659 279.225 20.2715 279.225C19.6558 279.225 18.5664 279.651 17.7612 280.125Z"/>
<path d="M111.777 290.403C110.546 290.782 62.5195 339.708 62.4722 340.655C62.2827 343.545 63.0879 345.581 64.8403 346.623C66.8296 347.807 68.7241 347.618 71.0923 346.055C74.5024 343.781 118.408 298.928 118.882 297.176C119.498 295.092 118.977 293.245 117.461 291.776C116.182 290.545 113.435 289.882 111.777 290.403Z"/>
</svg>
