<svg width="485" height="485" viewBox="0 0 485 485" fill="#1e293b" xmlns="http://www.w3.org/2000/svg">
  <path d="M223.081 92.8794C212.14 94.2056 196.463 97.9946 186.99 101.547C172.544 106.994 157.151 115.614 144.79 125.181C138.443 130.107 127.455 141 121.866 148.01C102.684 171.881 91.8374 198.121 88.5694 228.386C87.8589 235.206 88.001 251.878 88.8062 259.93C90.1324 272.576 94.3003 289.105 98.7525 299.573C103.205 309.993 112.109 326.333 113.34 326.333C114.146 326.333 133.991 316.481 139.011 313.545C151.326 306.44 162.598 298.72 172.166 290.763C174.486 288.821 179.175 284.937 182.585 282.143C185.948 279.301 191.49 274.423 194.853 271.249C198.215 268.076 202.099 264.382 203.52 263.103L206.078 260.735L202.952 256.472C196.984 248.231 190.448 233.122 188.127 222.039C186.422 214.177 185.996 209.014 186.28 199.068C186.659 184.764 188.743 175.907 194.284 164.872C201.815 149.715 213.23 137.875 227.107 130.77C229.191 129.728 230.659 128.828 230.328 128.828C229.286 128.828 220.429 132.096 215.077 134.464C201.389 140.527 190.637 148.01 179.933 158.951C162.882 176.476 152.983 197.647 150.378 222.229L149.715 228.528L149.952 221.755C150.71 197.836 157.388 178.039 170.46 160.798C173.634 156.583 182.964 147.158 187.322 143.748C194.995 137.732 205.036 132.333 214.556 129.018C232.791 122.766 256.662 121.818 274.47 126.697C298.862 133.375 320.413 149.005 334.385 170.129C342.389 182.207 347.126 194.237 349.825 209.346C351.104 216.355 351.009 230.896 349.588 239.185C348.357 246.621 345.136 256.898 342.058 263.292C334.906 278.212 321.976 291.095 307.388 297.82C297.441 302.415 288.869 304.262 277.549 304.214C267.887 304.214 262.724 303.362 253.346 300.283C242.832 296.826 233.217 291.663 224.407 284.701L220.571 281.717L219.718 282.806C214.035 290.1 204.467 305.825 199.021 316.718C190.969 332.727 186.99 345.42 184.622 362.092C184.054 366.26 183.533 369.718 183.533 369.812C183.485 369.86 167.95 360.671 167.24 360.15C166.956 359.914 169.371 352.335 172.071 345.041C174.771 337.558 182.017 322.781 187.132 314.255C194.758 301.467 204.894 286.974 213.419 276.602C218.013 270.965 218.439 269.497 215.929 267.413C213.324 265.187 212.945 265.424 203.804 274.612C176.144 302.272 152.131 320.128 125.655 332.538C122.197 334.148 119.356 335.616 119.356 335.806C119.356 336.469 126.271 344.284 131.575 349.73C143.037 361.334 152.557 368.676 166.056 376.207C190.685 389.942 222.986 397.283 248.894 395.01C277.738 392.499 301.941 384.164 324.912 368.818C333.627 362.992 339.547 358.019 347.41 349.967C358.066 339.026 364.271 330.785 372.228 317.145C377.201 308.572 376.917 307.909 370.002 312.55C358.066 320.555 348.831 325.149 333.532 330.596C321.644 334.811 313.213 337.037 299.478 339.453L289.626 341.205L272.576 341.252C254.293 341.252 251.736 341.063 239.895 338.647C228.433 336.279 221.187 333.911 214.556 330.264C210.956 328.322 205.936 324.675 203.946 322.591L202.573 321.17L205.983 322.544C222.892 329.412 245.152 333.011 262.345 331.59C270.492 330.927 281.48 328.701 288.679 326.286C294.552 324.296 305.683 319.181 310.845 316.103C316.624 312.645 324.296 306.44 329.648 300.946C345.515 284.606 354.704 266.134 358.824 242.263C360.008 235.348 360.245 218.676 359.251 211.619C357.593 199.636 354.325 189.122 348.594 177.328C343.289 166.34 336.611 157.057 327.043 147.537C300.331 120.871 265.945 110.262 227.344 116.75C225.686 117.035 225.686 117.035 226.87 116.372C227.533 115.993 230.043 114.998 232.459 114.193C248.847 108.699 267.46 109.267 287.258 115.803C320.981 126.886 350.962 154.878 365.455 188.743C369.955 199.257 373.791 213.466 375.686 226.633C376.443 232.033 376.443 251.452 375.638 257.893C374.407 267.65 371.328 279.396 367.492 288.679L365.076 294.552L360.056 297.82C344.899 307.577 330.075 314.35 313.545 318.992C308.43 320.413 306.914 321.597 306.914 324.202C306.914 326.001 308.24 327.28 310.087 327.28C312.74 327.28 325.812 323.065 335.237 319.134C352.099 312.219 367.729 302.509 381.559 290.526L384.495 287.969L385.963 282.664C389.847 268.408 391.126 260.309 391.552 247.236C392.168 225.923 388.663 206.788 380.232 185.901C376.728 177.233 375.591 174.913 370.855 167.003C353.567 138.064 327.233 115.377 296.778 103.252C284.369 98.3262 273.665 95.4844 259.788 93.4951C253.63 92.6426 228.575 92.169 223.081 92.8794ZM209.677 113.198C204.183 115.993 194.426 122.292 187.843 127.36C173.16 138.585 157.767 158.572 149.242 177.423C146.021 184.575 142.327 195.942 140.953 202.857C139.059 212.282 138.632 218.155 138.917 230.754C139.153 241.6 139.248 242.737 140.858 250.315C142.706 259.314 144.79 266.418 147.726 273.665C149.763 278.78 154.168 287.827 156.109 290.858L157.246 292.705L152.368 295.926C146.495 299.857 141.616 302.793 141.427 302.604C140.527 301.562 135.459 291.095 133.517 286.311C127.313 270.728 124.329 256.946 123.76 240.842C122.766 211.714 130.723 185.285 148.058 160.041C155.636 148.958 165.914 137.448 174.06 130.865C183.58 123.192 195.184 116.656 205.367 113.293C214.887 110.12 215.882 110.072 209.677 113.198ZM140.29 152.604C121.771 176.712 111.635 199.21 107.183 226.16C105.952 233.69 105.952 256.472 107.183 264.287C108.983 275.607 113.814 291.995 118.645 303.22C120.966 308.572 120.398 308.288 117.224 302.415C112.346 293.463 107.657 279.017 105.289 265.897C104.105 259.361 104.01 257.846 104.01 244.868C103.962 228.954 104.436 224.597 107.562 212.282C113.104 190.448 122.245 172.402 136.312 155.825C138.964 152.699 143.606 147.773 143.842 147.773C143.937 147.773 142.327 149.952 140.29 152.604ZM341.016 336.042C340.684 336.469 338.695 338.079 336.611 339.642C315.439 355.603 270.586 360.008 236.816 349.446C233.785 348.499 222.465 343.384 222.75 343.1C222.844 343.005 225.781 343.573 229.286 344.331C246.668 348.12 258.319 349.304 275.56 348.925C291.853 348.594 302.936 347.031 318.992 342.863C325.338 341.252 336.753 337.558 339.358 336.327C341.726 335.19 341.726 335.19 341.016 336.042ZM201.862 342.105C214.745 351.814 233.312 358.824 254.246 361.903C262.724 363.134 280.154 363.608 288.916 362.85C295.168 362.282 306.725 360.245 311.414 358.824C312.692 358.445 313.829 358.161 313.924 358.256C314.255 358.635 306.819 362.897 300.757 365.834C291.332 370.333 281.575 373.365 269.734 375.449C262.914 376.633 241.316 376.633 233.264 375.449C221.423 373.649 208.209 369.576 198.215 364.555C192.437 361.666 191.821 361.145 192.106 359.345C193.147 353.52 197.126 339.121 197.742 339.121C197.836 339.121 199.684 340.495 201.862 342.105Z"/>
  <path d="M242.69 136.122C242.121 137.59 242.69 138.538 244.158 138.538C245.295 138.538 245.626 138.301 245.721 137.401C246.005 135.696 243.305 134.559 242.69 136.122Z"/>
  <path d="M282.048 142.421C280.675 142.753 278.97 144.458 278.212 146.21C277.312 148.294 277.833 150.378 279.775 152.036C282.522 154.452 286.595 153.694 288.158 150.426C289.106 148.437 289.106 147.631 288.253 145.974C286.879 143.369 284.369 141.9 282.048 142.421Z"/>
  <path d="M224.739 146.968C218.582 149.052 214.793 153.741 214.224 160.088C213.703 165.771 216.877 171.36 222.323 174.202C224.407 175.292 225.307 175.481 229.002 175.481C234.022 175.481 236.106 174.628 239.8 171.076C246.668 164.351 244.584 152.415 235.727 147.963C232.838 146.495 227.628 146.021 224.739 146.968Z"/>
  <path d="M257.893 148.958C255.572 151.231 256.662 155.304 259.74 156.109C261.398 156.488 263.671 155.02 264.287 153.173C265.613 149.194 260.782 146.021 257.893 148.958Z"/>
  <path d="M309.282 159.472C287.069 162.977 272.055 172.26 258.13 191.111C256.662 193.1 255.951 193.716 255.383 193.479C250.031 191.442 241.458 192.153 235.111 195.231C226.065 199.589 215.313 214.84 211.903 228.149C210.388 234.211 210.482 234.827 213.04 235.917L215.077 236.769L218.724 233.406C223.318 229.144 227.012 227.296 231.322 227.202C232.98 227.154 234.496 227.249 234.685 227.438C234.827 227.581 233.643 230.186 232.033 233.264C229.807 237.432 229.238 238.995 229.522 239.658C230.043 240.748 247.947 255.193 249.604 255.856C251.499 256.567 252.92 255.856 256.851 252.162C262.108 247.236 262.156 247.189 262.866 250.125C263.861 254.199 262.866 259.03 259.598 265.897C258.793 267.555 258.13 269.166 258.13 269.45C258.13 270.634 260.498 271.534 262.724 271.202C269.213 270.35 283.659 258.888 288.584 250.694C293.226 243.021 294.079 234.496 291.095 225.828L289.911 222.513L293.463 218.392C300.473 210.34 306.346 200.489 309.188 192.058C311.935 183.817 312.361 180.975 312.361 171.455C312.361 162.361 312.029 159.093 311.035 159.188C310.703 159.235 309.945 159.377 309.282 159.472ZM295.357 175.576C301.657 180.407 304.309 182.917 304.167 183.77C304.072 184.148 303.362 186.517 302.557 188.979C299.999 196.889 296.352 203.141 289.579 211.24C282.759 219.339 268.645 232.885 258.13 241.411L254.53 244.3L253.394 243.353C252.73 242.832 251.831 242.121 251.31 241.742C250.504 241.174 250.741 240.795 255.241 236.011C257.846 233.217 260.024 230.659 259.977 230.422C259.977 230.138 258.651 228.859 257.041 227.486C254.909 225.733 253.962 225.212 253.536 225.544C253.204 225.781 251.31 228.196 249.32 230.801C247.284 233.454 245.484 235.822 245.294 236.059C245.105 236.295 244.063 235.774 242.974 234.922L241.079 233.406L243.731 228.338C257.893 201.815 273.191 181.922 285.08 174.628C287.542 173.16 289.816 171.929 290.1 171.929C290.384 171.929 292.752 173.539 295.357 175.576ZM248.373 204.467C245.768 208.446 242.168 214.698 240.937 217.303C239.658 220.097 239.421 220.287 238.285 220.05C232.743 218.724 228.054 219.339 223.792 221.897C222.371 222.797 221.187 223.318 221.187 223.128C221.187 222.607 226.16 214.745 228.291 211.903C232.412 206.457 238.853 203.283 246.005 203.236L249.226 203.188L248.373 204.467ZM282.238 233.501C283.469 239.137 282.333 244.821 279.064 249.889C277.454 252.352 270.018 260.261 269.687 259.882C269.592 259.788 269.971 258.367 270.492 256.709C271.723 252.778 271.439 249.178 269.639 245.673C268.929 244.347 268.266 243.068 268.171 242.926C268.124 242.784 270.35 240.748 273.144 238.379C275.986 236.011 278.875 233.406 279.633 232.601C280.438 231.796 281.196 231.133 281.385 231.133C281.575 231.133 281.954 232.222 282.238 233.501Z"/>
  <path d="M283.517 178.796C277.549 180.928 274.802 188.506 277.833 194.616C279.349 197.6 281.812 199.541 285.127 200.347C288.016 201.057 290.29 200.678 293.321 199.068C295.973 197.6 297.773 195.374 298.72 192.342C301.325 183.77 292.279 175.67 283.517 178.796ZM289.532 183.485C291.426 184.243 293.463 186.611 293.889 188.458C294.6 191.727 291.474 195.137 287.732 195.137C281.006 195.137 279.159 186.185 285.316 183.485C287.211 182.68 287.637 182.68 289.532 183.485Z"/>
  <path d="M267.555 205.415C263.671 207.783 264.003 214.271 268.076 216.308C271.155 217.871 275.37 216.403 276.838 213.324C277.786 211.335 277.549 209.44 276.081 207.404C274.186 204.704 270.16 203.757 267.555 205.415Z"/>
  <path d="M199.163 173.586C196.984 175.718 198.263 179.033 201.199 179.033C202.81 179.033 204.609 177.281 204.609 175.765C204.609 174.439 202.62 172.402 201.294 172.402C200.773 172.402 199.778 172.923 199.163 173.586Z"/>
  <path d="M326.191 186.232C324.06 187.89 324.344 191.395 326.759 192.626C328.322 193.384 330.596 192.437 331.448 190.685C333.011 187.511 328.985 184.148 326.191 186.232Z"/>
  <path d="M212.993 189.311C212.33 189.927 212.661 191.348 213.561 191.821C214.272 192.153 214.65 192.105 215.219 191.537C216.119 190.637 216.166 190.306 215.408 189.548C214.793 188.932 213.466 188.79 212.993 189.311Z"/>
  <path d="M199.731 203.236C196.321 205.225 197.126 212.045 200.915 213.04C206.741 214.603 210.435 207.12 205.557 203.662C204.136 202.62 201.152 202.431 199.731 203.236Z"/>
  <path d="M332.111 203.757C331.354 204.515 331.401 206.741 332.206 207.404C332.585 207.735 333.627 207.925 334.48 207.83C337.653 207.546 337.179 203.188 333.911 203.188C333.248 203.188 332.443 203.425 332.111 203.757Z"/>
  <path d="M328.796 221.423C326.57 222.418 325.149 225.686 325.812 228.196C326.522 230.659 328.18 232.127 330.69 232.412C333.343 232.696 335.711 231.18 336.706 228.575C338.505 223.839 333.485 219.292 328.796 221.423Z"/>
  <path d="M225.449 247.047C222.229 251.357 221.471 253.394 221.281 259.077C220.997 266.845 221.139 267.082 223.413 262.393C224.502 260.166 226.254 257.135 227.391 255.667C231.464 250.125 236.722 250.41 235.632 256.093C235.253 258.13 232.506 261.208 228.433 264.098C226.775 265.282 225.449 266.371 225.591 266.466C225.686 266.561 227.959 266.418 230.659 266.182C234.401 265.803 236.248 265.376 238.522 264.334C241.174 263.103 245.342 259.645 245.342 258.698C245.342 257.893 228.954 244.395 228.007 244.395C227.675 244.395 226.539 245.579 225.449 247.047Z"/>
  <path d="M330.501 247.284C329.506 247.852 329.364 250.552 330.217 251.404C331.638 252.825 334.385 251.357 334.385 249.226C334.385 248.278 332.774 246.763 331.78 246.763C331.543 246.763 330.927 247 330.501 247.284Z"/>
  <path d="M302.699 250.836C299.241 252.588 296.494 257.135 296.494 261.114C296.494 265.329 300.331 270.586 304.356 271.77C312.077 274.044 319.418 268.881 319.371 261.208C319.371 256.425 316.529 252.02 312.313 250.268C309.708 249.178 305.588 249.415 302.699 250.836Z"/>
  <path d="M239.185 275.181C236.817 277.549 237.953 280.959 241.221 281.243C243.447 281.433 244.868 280.059 244.868 277.833C244.868 274.849 241.221 273.144 239.185 275.181Z"/>
  <path d="M273.334 278.165C269.26 279.585 267.176 285.79 269.592 289.39C270.208 290.29 271.629 291.521 272.813 292.137C275.37 293.463 277.833 293.273 280.438 291.521C285.222 288.395 284.559 280.864 279.254 278.449C277.028 277.454 275.607 277.359 273.334 278.165Z"/>
  <path d="M303.599 282.711C302.841 284.18 303.788 285.695 305.351 285.506C306.961 285.316 307.814 283.99 307.104 282.853C306.346 281.622 304.262 281.527 303.599 282.711Z"/>
</svg>
