<svg width="301" height="301" viewBox="0 0 301 301" fill="#1e293b" xmlns="http://www.w3.org/2000/svg">
  <path d="M141.301 0.101784C110.799 2.09104 79.8233 13.9792 55.7627 33.0193C50.2212 37.3767 38.0489 49.3596 33.6914 54.759C29.6656 59.7795 23.3189 69.1575 19.5298 75.7883C10.5781 91.5129 4.23148 110.648 1.05814 131.582C-0.125944 139.397 -0.36276 157.632 0.584505 167.01C1.91068 179.609 5.60501 194.812 10.294 206.416C16.0723 220.862 25.4976 236.587 35.2071 248.001C39.0435 252.453 48.9424 262.258 52.9683 265.573C62.9146 273.719 77.4551 282.434 90.6221 288.118C111.415 297.117 136.375 301.522 158.683 300.148C168.014 299.58 181.891 297.448 189.611 295.365C234.038 283.571 270.366 252.406 288.127 210.821C303.899 174.02 304.467 133.856 289.737 95.3967C286.943 87.9607 280.975 76.0725 276.712 69.4416C263.735 49.0754 248.484 34.156 228.212 21.9836C209.03 10.427 188.806 3.46458 167.587 1.04905C161.099 0.291237 146.511 -0.229759 141.301 0.101784ZM122.782 42.3498C115.819 46.5178 109.757 51.0647 104.973 55.6589C89.1065 70.8625 78.3076 91.4182 75.4658 111.69C72.9556 129.972 74.9922 147.26 81.481 162.747C89.0117 180.698 101.089 195.57 116.909 206.274C126.713 212.952 135.38 217.073 146.748 220.483C156.978 223.562 163.325 224.509 174.692 224.509C185.728 224.556 190.464 224.035 199.794 221.667C223.713 215.699 241.948 202.248 255.588 180.461C257.53 177.335 257.625 177.24 257.341 178.993C256.346 185.055 252.178 196.47 247.963 204.616C244.079 212.147 234.37 224.841 227.36 231.471C211.493 246.675 189.09 257.521 166.167 261.121C158.683 262.305 142.58 262.258 134.907 261.073C92.7061 254.537 58.794 226.451 45.2954 186.903C39.0908 168.668 37.4805 148.917 40.6538 130.209C43.5904 113.158 50.0318 97.6228 59.836 83.8874C67.8404 72.6623 77.6446 63.1423 88.9644 55.4695C93.8428 52.2014 106.536 45.9021 112.409 43.8655C116.767 42.3498 124.676 40.1238 125.86 40.0764C126.239 40.0764 124.818 41.071 122.782 42.3498ZM154.42 50.3542C154.752 55.5642 156.078 59.1164 158.588 61.7688C161.241 64.5159 163.656 65.6052 168.345 66.2209C173.318 66.884 173.65 67.7839 169.008 68.1628C160.199 68.9206 154.941 74.7463 154.42 84.4558C154.136 90.3288 153.236 90.092 152.857 84.0769C152.526 79.3406 151.958 77.3513 150.252 74.6516C147.837 70.7678 143.858 68.5417 138.838 68.1155C137.18 68.0207 135.712 67.6892 135.57 67.4997C135.286 66.9787 135.665 66.8367 139.785 66.2209C145.185 65.3684 149.068 62.7634 151.294 58.406C152.289 56.5115 153.189 51.2068 153.378 46.5652C153.378 46.3757 153.568 46.2336 153.805 46.2336C153.994 46.2336 154.326 48.0808 154.42 50.3542ZM224.565 77.5881C223.76 82.7981 220.966 91.5129 218.314 97.0071C215.898 102.075 211.446 108.895 207.325 113.821C200.552 121.873 188.333 131.251 178.86 135.608L175.734 137.076L174.313 135.087C172.276 132.245 168.535 128.172 167.966 128.172C167.73 128.172 164.651 130.398 161.146 133.145C157.641 135.845 154.515 137.976 154.184 137.834C153.899 137.739 153.142 136.934 152.621 136.082L151.579 134.566L153.757 131.961C154.989 130.54 157.546 127.604 159.488 125.425L162.993 121.494L159.299 117.752C154.989 113.395 154.941 114.247 159.725 107.759C165.503 99.9436 173.887 91.9392 182.175 86.303C192.453 79.3406 207.799 73.9885 219.45 73.2781C222.339 73.0886 224.802 73.0412 224.944 73.0886C225.086 73.136 224.944 75.1726 224.565 77.5881ZM120.366 80.3826C120.982 81.8982 121.503 82.4192 123.019 83.0349C125.387 83.9348 125.481 84.8347 123.397 85.7346C121.74 86.3977 119.751 88.529 119.751 89.6184C119.751 89.9973 119.419 90.2815 119.04 90.2815C118.661 90.2815 118.33 89.9026 118.33 89.4289C118.33 88.0554 116.956 86.4924 114.967 85.6872C113.972 85.3083 113.12 84.8347 113.12 84.6452C113.12 84.4558 114.114 83.8401 115.298 83.2717C117.003 82.4192 117.619 81.7561 118.188 80.3352C118.614 79.2932 119.087 78.4407 119.277 78.4407C119.466 78.4407 119.94 79.2932 120.366 80.3826ZM105.447 97.4333C105.873 102.691 109.331 107.001 114.067 108.327C115.393 108.706 116.53 109.179 116.577 109.416C116.625 109.653 115.535 110.127 114.114 110.506C109.425 111.69 107.057 114.342 105.684 119.836C104.831 123.388 103.647 124.146 103.647 121.162C103.647 120.215 103.031 118.084 102.273 116.473C100.616 113.016 98.4844 111.358 94.5059 110.553C93.0376 110.221 91.8535 109.795 91.9483 109.558C91.9956 109.322 93.3218 108.706 94.8848 108.185C96.4478 107.664 98.437 106.717 99.2422 106.101C101.279 104.585 103.031 101.459 103.41 98.8069C103.6 97.6228 103.836 96.3913 103.931 96.0598C104.31 94.8757 105.305 95.7756 105.447 97.4333ZM150.158 110.127L153.331 110.411L151.863 112.779C150.016 115.716 146.89 122.773 146.511 124.999L146.179 126.656L144.001 125.662C139.738 123.815 135.096 124.383 125.529 128.077C124.866 128.314 136.091 114.626 139.075 111.453C140.732 109.748 140.875 109.7 143.906 109.748C145.611 109.795 148.405 109.937 150.158 110.127ZM238.348 121.02C238.917 122.394 239.674 123.152 241.048 123.72C242.043 124.194 242.895 124.715 242.895 124.904C242.895 125.093 241.948 125.804 240.811 126.467C239.343 127.32 238.49 128.219 238.111 129.356C237.78 130.256 237.354 131.014 237.211 131.014C237.022 131.014 236.548 130.161 236.169 129.167C235.601 127.793 234.938 127.035 233.612 126.42C232.617 125.946 231.765 125.33 231.67 125.093C231.623 124.809 232.38 124.241 233.47 123.815C234.938 123.199 235.554 122.583 236.169 121.115C236.596 120.026 237.117 119.173 237.259 119.173C237.401 119.173 237.875 120.026 238.348 121.02ZM98.4844 137.029C99.1001 138.734 100.284 140.013 101.658 140.534C103.126 141.102 102.984 141.671 101.042 142.807C100.047 143.376 99.0528 144.512 98.6265 145.46C98.2476 146.36 97.7739 147.117 97.5845 147.117C97.395 147.117 96.874 146.265 96.4004 145.27C95.7847 143.897 95.0742 143.234 93.7007 142.665C92.6587 142.239 91.8062 141.765 91.8062 141.576C91.8062 141.339 92.6587 140.818 93.7481 140.392C95.2163 139.776 95.8321 139.16 96.4478 137.692C97.395 135.419 97.8213 135.277 98.4844 137.029ZM145.706 138.781C146.463 140.581 147.411 141.765 148.689 142.665C150.347 143.802 150.537 144.134 150.537 145.886C150.537 148.775 149.021 153.796 147.174 156.922C146.274 158.437 143.527 161.705 141.064 164.168C136.233 168.999 132.681 171.32 124.913 174.635C121.124 176.293 108.241 180.272 106.726 180.272C106.299 180.272 106.441 178.898 107.247 175.299C109.567 164.879 112.883 157.111 117.998 150.338C124.866 141.197 133.06 136.461 142.248 136.271L144.616 136.224L145.706 138.781ZM176.776 146.218C176.965 149.391 177.06 151.996 176.965 152.043C176.871 152.138 174.787 153.654 172.324 155.501C166.688 159.621 154.799 167.578 154.799 167.247C154.799 167.105 155.841 165.447 157.12 163.552C161.714 156.685 162.141 155.548 162.141 149.864V144.797L166.403 143.802C168.772 143.281 171.85 142.286 173.271 141.671C174.692 141.055 176.018 140.534 176.16 140.487C176.302 140.487 176.586 143.044 176.776 146.218ZM242.137 155.169C242.564 157.822 245.311 160.616 248.247 161.374C250.757 161.989 250.947 162.795 248.768 163.268C245.311 163.931 242.706 166.773 242.137 170.325C241.758 172.504 240.527 172.978 240.527 170.894C240.48 168.952 238.917 165.873 237.401 164.784C236.643 164.216 235.127 163.552 234.038 163.221C231.67 162.51 231.812 162.037 234.512 161.232C237.259 160.426 239.959 157.585 240.337 155.169C240.716 152.754 241.758 152.706 242.137 155.169ZM203.82 158.343C204.531 161.8 205.999 163.458 209.409 164.689C211.541 165.447 211.446 166.015 209.03 166.868C208.036 167.199 206.804 167.863 206.283 168.336C205.194 169.283 203.584 172.362 203.584 173.404C203.584 173.783 203.347 174.114 203.11 174.114C202.589 174.114 202.447 173.783 201.926 171.557C201.5 169.52 198.847 167.247 196.195 166.584C193.685 165.968 193.827 165.636 197.047 164.452C199.463 163.552 202.163 160.9 202.163 159.432C202.163 157.064 203.394 156.259 203.82 158.343ZM150.726 185.434C151.058 187.566 153.568 190.076 155.794 190.55C158.02 190.976 157.831 191.497 155.036 192.776C152.384 193.96 150.868 195.76 150.3 198.365C149.874 200.212 149.258 200.022 148.642 197.796C147.932 195.144 146.085 193.155 143.669 192.491C142.58 192.16 141.585 191.686 141.49 191.449C141.396 191.213 142.295 190.692 143.527 190.265C146.321 189.318 148.026 187.708 148.642 185.387C149.305 183.066 150.347 183.066 150.726 185.434ZM193.069 190.834C193.448 191.876 194.3 192.776 195.532 193.486C196.574 194.054 197.426 194.812 197.426 195.096C197.426 195.428 196.621 195.996 195.626 196.423C194.395 196.944 193.543 197.701 192.974 198.885C192.548 199.88 192.027 200.638 191.837 200.638C191.648 200.638 191.127 199.785 190.653 198.791C190.038 197.37 189.327 196.754 187.812 196.138C186.012 195.381 185.917 195.286 186.722 194.765C189.801 192.918 190.559 192.207 190.985 190.786C191.553 188.844 192.358 188.844 193.069 190.834Z"/>
  <path d="M189.043 90.2815C186.912 90.7552 183.501 92.8865 182.081 94.5916C179.002 98.2386 178.339 103.827 180.518 108.09C182.886 112.779 186.675 115.053 191.98 115.1C196.005 115.1 198.942 113.821 201.5 111.027C206.378 105.627 206.283 99.1385 201.215 93.9759C197.71 90.3763 193.732 89.1448 189.043 90.2815ZM194.253 96.6282C199.226 98.6648 199.842 105.012 195.39 107.759C192.358 109.653 188.333 108.706 186.533 105.769C184.638 102.643 185.87 98.7122 189.375 96.865C191.316 95.7757 192.216 95.7757 194.253 96.6282Z"/>
  <path d="M138.885 141.813C133.06 143.849 128.418 147.781 125.529 153.133C123.966 156.116 121.361 164.5 121.834 164.973C122.308 165.447 128.465 163.363 132.823 161.279C137.37 159.148 141.49 155.595 143.48 152.138C144.237 150.812 144.853 149.486 144.853 149.201C144.853 148.823 143.527 149.059 140.969 149.77C138.791 150.386 136.896 150.859 136.707 150.812C136.328 150.67 139.217 145.365 141.253 142.239C142.248 140.723 142.106 140.723 138.885 141.813Z"/>
</svg>
